{
	"asset":{
		"generator":"Khronos glTF Blender I/O v3.5.30",
		"version":"2.0"
	},
	"scene":0,
	"scenes":[
		{
			"name":"Scene",
			"nodes":[
				0
			]
		}
	],
	"nodes":[
		{
			"mesh":0,
			"name":"Jet",
			"scale":[
				1,
				0.6946492791175842,
				1
			]
		}
	],
	"meshes":[
		{
			"name":"Cube.006",
			"primitives":[
				{
					"attributes":{
						"POSITION":0,
						"TEXCOORD_0":1,
						"NORMAL":2
					},
					"indices":3
				}
			]
		}
	],
	"accessors":[
		{
			"bufferView":0,
			"componentType":5126,
			"count":162,
			"max":[
				4.448977470397949,
				3.5156853199005127,
				5.086988925933838
			],
			"min":[
				-4.371298789978027,
				-1,
				-4.972487449645996
			],
			"type":"VEC3"
		},
		{
			"bufferView":1,
			"componentType":5126,
			"count":162,
			"type":"VEC2"
		},
		{
			"bufferView":2,
			"componentType":5126,
			"count":162,
			"type":"VEC3"
		},
		{
			"bufferView":3,
			"componentType":5123,
			"count":252,
			"type":"SCALAR"
		}
	],
	"bufferViews":[
		{
			"buffer":0,
			"byteLength":1944,
			"byteOffset":0,
			"target":34962
		},
		{
			"buffer":0,
			"byteLength":1296,
			"byteOffset":1944,
			"target":34962
		},
		{
			"buffer":0,
			"byteLength":1944,
			"byteOffset":3240,
			"target":34962
		},
		{
			"buffer":0,
			"byteLength":504,
			"byteOffset":5184,
			"target":34963
		}
	],
	"buffers":[
		{
			"byteLength":5688,
			"uri":"jet.bin"
		}
	]
}
