{
	"asset":{
		"copyright":"(C) 1980 Monstrous Software",
		"generator":"Khronos glTF Blender I/O v3.5.30",
		"version":"2.0"
	},
	"scene":0,
	"scenes":[
		{
			"name":"Scene",
			"nodes":[
				0,
				1,
				2,
				3,
				4,
				5,
				6,
				7,
				8,
				9,
				10,
				11
			]
		}
	],
	"nodes":[
		{
			"mesh":0,
			"name":"TankBody"
		},
		{
			"mesh":1,
			"name":"TankTurret"
		},
		{
			"mesh":2,
			"name":"AATruck"
		},
		{
			"mesh":3,
			"name":"AATurret"
		},
		{
			"mesh":4,
			"name":"Jet"
		},
		{
			"mesh":5,
			"name":"Rocket"
		},
		{
			"mesh":6,
			"name":"ControlTower"
		},
		{
			"mesh":7,
			"name":"Pyramid"
		},
		{
			"mesh":8,
			"name":"Building"
		},
		{
			"mesh":9,
			"name":"Helicopter"
		},
		{
			"mesh":10,
			"name":"Debris"
		},
		{
			"mesh":11,
			"name":"Watermelon"
		}
	],
	"materials":[
		{
			"doubleSided":true,
			"name":"Material",
			"pbrMetallicRoughness":{
				"baseColorFactor":[
					0.800000011920929,
					0.800000011920929,
					0.800000011920929,
					1
				],
				"metallicFactor":0,
				"roughnessFactor":0.5
			}
		}
	],
	"meshes":[
		{
			"name":"Cube",
			"primitives":[
				{
					"attributes":{
						"POSITION":0,
						"TEXCOORD_0":1,
						"NORMAL":2
					},
					"indices":3,
					"material":0
				}
			]
		},
		{
			"name":"Cube.001",
			"primitives":[
				{
					"attributes":{
						"POSITION":4,
						"TEXCOORD_0":5,
						"NORMAL":6
					},
					"indices":7
				}
			]
		},
		{
			"name":"Cube.002",
			"primitives":[
				{
					"attributes":{
						"POSITION":8,
						"TEXCOORD_0":9,
						"NORMAL":10
					},
					"indices":11
				}
			]
		},
		{
			"name":"Cube.003",
			"primitives":[
				{
					"attributes":{
						"POSITION":12,
						"TEXCOORD_0":13,
						"NORMAL":14
					},
					"indices":15
				}
			]
		},
		{
			"name":"Cube.006",
			"primitives":[
				{
					"attributes":{
						"POSITION":16,
						"TEXCOORD_0":17,
						"NORMAL":18
					},
					"indices":19
				}
			]
		},
		{
			"name":"Cube.004",
			"primitives":[
				{
					"attributes":{
						"POSITION":20,
						"TEXCOORD_0":21,
						"NORMAL":22
					},
					"indices":23
				}
			]
		},
		{
			"name":"Cube.005",
			"primitives":[
				{
					"attributes":{
						"POSITION":24,
						"TEXCOORD_0":25,
						"NORMAL":26
					},
					"indices":27
				}
			]
		},
		{
			"name":"Cone",
			"primitives":[
				{
					"attributes":{
						"POSITION":28,
						"TEXCOORD_0":29,
						"NORMAL":30
					},
					"indices":31
				}
			]
		},
		{
			"name":"Cube.007",
			"primitives":[
				{
					"attributes":{
						"POSITION":32,
						"TEXCOORD_0":33,
						"NORMAL":34
					},
					"indices":35
				}
			]
		},
		{
			"name":"Cube.008",
			"primitives":[
				{
					"attributes":{
						"POSITION":36,
						"TEXCOORD_0":37,
						"NORMAL":38
					},
					"indices":39
				}
			]
		},
		{
			"name":"Cone.001",
			"primitives":[
				{
					"attributes":{
						"POSITION":40,
						"TEXCOORD_0":41,
						"NORMAL":42
					},
					"indices":31
				}
			]
		},
		{
			"name":"Sphere",
			"primitives":[
				{
					"attributes":{
						"POSITION":43,
						"TEXCOORD_0":44,
						"NORMAL":45
					},
					"indices":46
				}
			]
		}
	],
	"accessors":[
		{
			"bufferView":0,
			"componentType":5126,
			"count":36,
			"max":[
				2.078433036804199,
				2.0457732677459717,
				3.2033143043518066
			],
			"min":[
				-2.078433036804199,
				0.04577326774597168,
				-3.161616325378418
			],
			"type":"VEC3"
		},
		{
			"bufferView":1,
			"componentType":5126,
			"count":36,
			"type":"VEC2"
		},
		{
			"bufferView":2,
			"componentType":5126,
			"count":36,
			"type":"VEC3"
		},
		{
			"bufferView":3,
			"componentType":5123,
			"count":60,
			"type":"SCALAR"
		},
		{
			"bufferView":4,
			"componentType":5126,
			"count":48,
			"max":[
				1,
				3.1667556762695312,
				4.629209995269775
			],
			"min":[
				-1,
				2.0457732677459717,
				-1
			],
			"type":"VEC3"
		},
		{
			"bufferView":5,
			"componentType":5126,
			"count":48,
			"type":"VEC2"
		},
		{
			"bufferView":6,
			"componentType":5126,
			"count":48,
			"type":"VEC3"
		},
		{
			"bufferView":7,
			"componentType":5123,
			"count":72,
			"type":"SCALAR"
		},
		{
			"bufferView":8,
			"componentType":5126,
			"count":50,
			"max":[
				1.345624566078186,
				2,
				4.913744926452637
			],
			"min":[
				-1.345624566078186,
				0,
				-4.913744926452637
			],
			"type":"VEC3"
		},
		{
			"bufferView":9,
			"componentType":5126,
			"count":50,
			"type":"VEC2"
		},
		{
			"bufferView":10,
			"componentType":5126,
			"count":50,
			"type":"VEC3"
		},
		{
			"bufferView":11,
			"componentType":5123,
			"count":84,
			"type":"SCALAR"
		},
		{
			"bufferView":12,
			"componentType":5126,
			"count":104,
			"max":[
				1,
				3.1767096519470215,
				1.1328688859939575
			],
			"min":[
				-1,
				1,
				-3.733516216278076
			],
			"type":"VEC3"
		},
		{
			"bufferView":13,
			"componentType":5126,
			"count":104,
			"type":"VEC2"
		},
		{
			"bufferView":14,
			"componentType":5126,
			"count":104,
			"type":"VEC3"
		},
		{
			"bufferView":15,
			"componentType":5123,
			"count":186,
			"type":"SCALAR"
		},
		{
			"bufferView":16,
			"componentType":5126,
			"count":162,
			"max":[
				4.371298789978027,
				2.4421682357788086,
				4.972487449645996
			],
			"min":[
				-4.448977947235107,
				-0.6946492791175842,
				-5.086988925933838
			],
			"type":"VEC3"
		},
		{
			"bufferView":17,
			"componentType":5126,
			"count":162,
			"type":"VEC2"
		},
		{
			"bufferView":18,
			"componentType":5126,
			"count":162,
			"type":"VEC3"
		},
		{
			"bufferView":19,
			"componentType":5123,
			"count":252,
			"type":"SCALAR"
		},
		{
			"bufferView":20,
			"componentType":5126,
			"count":32,
			"max":[
				0.22627423703670502,
				0.22627416253089905,
				1.1910836696624756
			],
			"min":[
				-0.22627423703670502,
				-0.22627416253089905,
				-0.7999999523162842
			],
			"type":"VEC3"
		},
		{
			"bufferView":21,
			"componentType":5126,
			"count":32,
			"type":"VEC2"
		},
		{
			"bufferView":22,
			"componentType":5126,
			"count":32,
			"type":"VEC3"
		},
		{
			"bufferView":23,
			"componentType":5123,
			"count":42,
			"type":"SCALAR"
		},
		{
			"bufferView":24,
			"componentType":5126,
			"count":40,
			"max":[
				2.7896270751953125,
				13.033920288085938,
				2.7896270751953125
			],
			"min":[
				-2.7896270751953125,
				0,
				-2.7896270751953125
			],
			"type":"VEC3"
		},
		{
			"bufferView":25,
			"componentType":5126,
			"count":40,
			"type":"VEC2"
		},
		{
			"bufferView":26,
			"componentType":5126,
			"count":40,
			"type":"VEC3"
		},
		{
			"bufferView":27,
			"componentType":5123,
			"count":60,
			"type":"SCALAR"
		},
		{
			"bufferView":28,
			"componentType":5126,
			"count":16,
			"max":[
				7.5,
				10,
				7.5
			],
			"min":[
				-7.5,
				0,
				-7.5
			],
			"type":"VEC3"
		},
		{
			"bufferView":29,
			"componentType":5126,
			"count":16,
			"type":"VEC2"
		},
		{
			"bufferView":30,
			"componentType":5126,
			"count":16,
			"type":"VEC3"
		},
		{
			"bufferView":31,
			"componentType":5123,
			"count":18,
			"type":"SCALAR"
		},
		{
			"bufferView":32,
			"componentType":5126,
			"count":30,
			"max":[
				4,
				3.631741762161255,
				2
			],
			"min":[
				-4,
				0,
				-2
			],
			"type":"VEC3"
		},
		{
			"bufferView":33,
			"componentType":5126,
			"count":30,
			"type":"VEC2"
		},
		{
			"bufferView":34,
			"componentType":5126,
			"count":30,
			"type":"VEC3"
		},
		{
			"bufferView":35,
			"componentType":5123,
			"count":48,
			"type":"SCALAR"
		},
		{
			"bufferView":36,
			"componentType":5126,
			"count":360,
			"max":[
				8.099991798400879,
				3.1058802604675293,
				9.408681869506836
			],
			"min":[
				-8.562331199645996,
				-1.3489078283309937,
				-9.629106521606445
			],
			"type":"VEC3"
		},
		{
			"bufferView":37,
			"componentType":5126,
			"count":360,
			"type":"VEC2"
		},
		{
			"bufferView":38,
			"componentType":5126,
			"count":360,
			"type":"VEC3"
		},
		{
			"bufferView":39,
			"componentType":5123,
			"count":570,
			"type":"SCALAR"
		},
		{
			"bufferView":40,
			"componentType":5126,
			"count":16,
			"max":[
				1,
				1,
				1
			],
			"min":[
				-1,
				-1,
				-1
			],
			"type":"VEC3"
		},
		{
			"bufferView":41,
			"componentType":5126,
			"count":16,
			"type":"VEC2"
		},
		{
			"bufferView":42,
			"componentType":5126,
			"count":16,
			"type":"VEC3"
		},
		{
			"bufferView":43,
			"componentType":5126,
			"count":408,
			"max":[
				0.980785071849823,
				0.8695025444030762,
				0.70914226770401
			],
			"min":[
				0,
				-0.6171388626098633,
				-0.9989581108093262
			],
			"type":"VEC3"
		},
		{
			"bufferView":44,
			"componentType":5126,
			"count":408,
			"type":"VEC2"
		},
		{
			"bufferView":45,
			"componentType":5126,
			"count":408,
			"type":"VEC3"
		},
		{
			"bufferView":46,
			"componentType":5123,
			"count":624,
			"type":"SCALAR"
		}
	],
	"bufferViews":[
		{
			"buffer":0,
			"byteLength":432,
			"byteOffset":0,
			"target":34962
		},
		{
			"buffer":0,
			"byteLength":288,
			"byteOffset":432,
			"target":34962
		},
		{
			"buffer":0,
			"byteLength":432,
			"byteOffset":720,
			"target":34962
		},
		{
			"buffer":0,
			"byteLength":120,
			"byteOffset":1152,
			"target":34963
		},
		{
			"buffer":0,
			"byteLength":576,
			"byteOffset":1272,
			"target":34962
		},
		{
			"buffer":0,
			"byteLength":384,
			"byteOffset":1848,
			"target":34962
		},
		{
			"buffer":0,
			"byteLength":576,
			"byteOffset":2232,
			"target":34962
		},
		{
			"buffer":0,
			"byteLength":144,
			"byteOffset":2808,
			"target":34963
		},
		{
			"buffer":0,
			"byteLength":600,
			"byteOffset":2952,
			"target":34962
		},
		{
			"buffer":0,
			"byteLength":400,
			"byteOffset":3552,
			"target":34962
		},
		{
			"buffer":0,
			"byteLength":600,
			"byteOffset":3952,
			"target":34962
		},
		{
			"buffer":0,
			"byteLength":168,
			"byteOffset":4552,
			"target":34963
		},
		{
			"buffer":0,
			"byteLength":1248,
			"byteOffset":4720,
			"target":34962
		},
		{
			"buffer":0,
			"byteLength":832,
			"byteOffset":5968,
			"target":34962
		},
		{
			"buffer":0,
			"byteLength":1248,
			"byteOffset":6800,
			"target":34962
		},
		{
			"buffer":0,
			"byteLength":372,
			"byteOffset":8048,
			"target":34963
		},
		{
			"buffer":0,
			"byteLength":1944,
			"byteOffset":8420,
			"target":34962
		},
		{
			"buffer":0,
			"byteLength":1296,
			"byteOffset":10364,
			"target":34962
		},
		{
			"buffer":0,
			"byteLength":1944,
			"byteOffset":11660,
			"target":34962
		},
		{
			"buffer":0,
			"byteLength":504,
			"byteOffset":13604,
			"target":34963
		},
		{
			"buffer":0,
			"byteLength":384,
			"byteOffset":14108,
			"target":34962
		},
		{
			"buffer":0,
			"byteLength":256,
			"byteOffset":14492,
			"target":34962
		},
		{
			"buffer":0,
			"byteLength":384,
			"byteOffset":14748,
			"target":34962
		},
		{
			"buffer":0,
			"byteLength":84,
			"byteOffset":15132,
			"target":34963
		},
		{
			"buffer":0,
			"byteLength":480,
			"byteOffset":15216,
			"target":34962
		},
		{
			"buffer":0,
			"byteLength":320,
			"byteOffset":15696,
			"target":34962
		},
		{
			"buffer":0,
			"byteLength":480,
			"byteOffset":16016,
			"target":34962
		},
		{
			"buffer":0,
			"byteLength":120,
			"byteOffset":16496,
			"target":34963
		},
		{
			"buffer":0,
			"byteLength":192,
			"byteOffset":16616,
			"target":34962
		},
		{
			"buffer":0,
			"byteLength":128,
			"byteOffset":16808,
			"target":34962
		},
		{
			"buffer":0,
			"byteLength":192,
			"byteOffset":16936,
			"target":34962
		},
		{
			"buffer":0,
			"byteLength":36,
			"byteOffset":17128,
			"target":34963
		},
		{
			"buffer":0,
			"byteLength":360,
			"byteOffset":17164,
			"target":34962
		},
		{
			"buffer":0,
			"byteLength":240,
			"byteOffset":17524,
			"target":34962
		},
		{
			"buffer":0,
			"byteLength":360,
			"byteOffset":17764,
			"target":34962
		},
		{
			"buffer":0,
			"byteLength":96,
			"byteOffset":18124,
			"target":34963
		},
		{
			"buffer":0,
			"byteLength":4320,
			"byteOffset":18220,
			"target":34962
		},
		{
			"buffer":0,
			"byteLength":2880,
			"byteOffset":22540,
			"target":34962
		},
		{
			"buffer":0,
			"byteLength":4320,
			"byteOffset":25420,
			"target":34962
		},
		{
			"buffer":0,
			"byteLength":1140,
			"byteOffset":29740,
			"target":34963
		},
		{
			"buffer":0,
			"byteLength":192,
			"byteOffset":30880,
			"target":34962
		},
		{
			"buffer":0,
			"byteLength":128,
			"byteOffset":31072,
			"target":34962
		},
		{
			"buffer":0,
			"byteLength":192,
			"byteOffset":31200,
			"target":34962
		},
		{
			"buffer":0,
			"byteLength":4896,
			"byteOffset":31392,
			"target":34962
		},
		{
			"buffer":0,
			"byteLength":3264,
			"byteOffset":36288,
			"target":34962
		},
		{
			"buffer":0,
			"byteLength":4896,
			"byteOffset":39552,
			"target":34962
		},
		{
			"buffer":0,
			"byteLength":1248,
			"byteOffset":44448,
			"target":34963
		}
	],
	"buffers":[
		{
			"byteLength":45696,
			"uri":"skypatrol.bin"
		}
	]
}
